<svg id="Calque_1" data-name="Calque 1" xmlns="http://www.w3.org/2000/svg" xmlns:xlink="http://www.w3.org/1999/xlink" viewBox="0 0 32 32"><defs><style>.cls-1{fill:#01cf11;}.cls-2{fill:#0000a8;}.cls-3,.cls-6{fill:#fff;}.cls-4{fill:none;}.cls-5{fill:#006624;}.cls-6{fill-rule:evenodd;}</style></defs><path class="cls-1" d="M14.7,13.79l0,.05.24.61-.58.94,0,0-.15-.07h0l-.1,0,0,0-.33.34-.06.26v.15a3.84,3.84,0,0,0-1.67-.33,4.45,4.45,0,0,0-1.29.1.73.73,0,0,1-.25,0h0a1.18,1.18,0,0,1-.21,0h0l-.07,0-.06,0-.09,0h0l-.25-.21h0c-.12-.1-.26-.23-.41-.38a6.74,6.74,0,0,1-.89-1h0a1,1,0,0,1-.15-.44h0a2.51,2.51,0,0,1,.37-1.35h0l.67,0L9.11,12h.28v-.64h.71v-.22l2.22,1.48h.24v.24h.2l.07,0,.07,0,.15-.07,0,0,.05,0L14.3,12h.48l.37.37v.93l-.45.5Z"/><path class="cls-2" d="M16,29.51A13.51,13.51,0,1,1,29.51,16,13.52,13.52,0,0,1,16,29.51ZM16,6.64A9.36,9.36,0,1,0,25.36,16,9.37,9.37,0,0,0,16,6.64Z"/><path class="cls-3" d="M14.08,27.12l0,.29A11.6,11.6,0,0,1,4.5,16,11.48,11.48,0,0,1,6.87,9l.24.18A11.12,11.12,0,0,0,4.8,16,11.31,11.31,0,0,0,14.08,27.12Z"/><path class="cls-3" d="M27.61,16A11.58,11.58,0,0,1,17.9,27.44l0-.3A11.26,11.26,0,0,0,24.85,9l.23-.18A11.4,11.4,0,0,1,27.61,16Z"/><path class="cls-4" d="M22.72,14.7l-.32,1-.07.22a.6.6,0,0,1-.19.3l-1.67,1.58a.66.66,0,0,0-.21.51v.18l.12,1.88v.08a.45.45,0,0,1,0,.23l-.07.11,0,0-.1.09h0l-.66.38a.62.62,0,0,0-.32.55v.58a.67.67,0,0,1-.19.47l-1.16,1.13-.42.41a.6.6,0,0,1-.35.16L16,24.74a.35.35,0,0,1-.37-.27A15.36,15.36,0,0,0,15,22.25h0a8.28,8.28,0,0,0-.53-1.13.68.68,0,0,1,0-.59l.22-.58a.19.19,0,0,0,0-.07.63.63,0,0,0,0-.43l-.87-1.77a.7.7,0,0,1-.05-.51l0-.17.07-.29a.53.53,0,0,0-.22-.56l-.07,0L13.22,16l-.32-.1-.25-.06-.25,0-.3,0h-.45a4.91,4.91,0,0,0-1,.11l-.09,0-.11,0h-.07l-.19,0h0l-.07,0-.06,0-.09,0h0a.62.62,0,0,1-.19-.14l-.06-.07h0l0,0-.36-.38-.33-.34-.5-.54-.08-.08h0a.83.83,0,0,1-.14-.32.49.49,0,0,1,0-.12h0a1.09,1.09,0,0,1,0-.18l.15-.9,0-.25.1-.57a1.16,1.16,0,0,1,.16-.4,1.63,1.63,0,0,1,.17-.2l.86-.77,1-.91.53-.47a.11.11,0,0,1,.08,0H14a.13.13,0,0,1,.13.13l0,.33a.38.38,0,0,0,.22.34l.74.33.67.29a.09.09,0,0,0,.12-.05l.2-.49a.23.23,0,0,1,.29-.13l.11,0,1.43.48.4.13a.52.52,0,0,1,.3.24l.49.81L20,13l.8,1.33a.69.69,0,0,0,.11.13.58.58,0,0,0,.42.14l1.23-.1A.15.15,0,0,1,22.72,14.7Z"/><path class="cls-5" d="M22.81,14.47a.31.31,0,0,0-.26-.11l-1.24.1a.44.44,0,0,1-.39-.2l-.49-.83,0,0-1.65-2.76a.76.76,0,0,0-.38-.3l-1.95-.64A.37.37,0,0,0,16,9.9l-.18.43-1.35-.59a.23.23,0,0,1-.13-.2l0-.34a.32.32,0,0,0-.08-.2.3.3,0,0,0-.2-.08H11.3a.29.29,0,0,0-.18.07L8.73,11.14a1.37,1.37,0,0,0-.19.23,1,1,0,0,0-.18.46l-.15.86-.07.42-.05.26,0,.18a1,1,0,0,0,0,.17v0a.39.39,0,0,0,0,.15,1,1,0,0,0,.13.34v0l.05,0,0,0h0l0,0,.95,1,.24.26.09.1a.78.78,0,0,0,.21.16l0,0,.1,0L10,16l.09,0h0a.53.53,0,0,0,.22,0h.08l.13,0,.09,0a4.58,4.58,0,0,1,.63-.1l.38,0h.43l.3,0h0l.2,0,.24.06.32.1.25.1.05,0a.37.37,0,0,1,.16.39l-.12.46a.89.89,0,0,0,.07.62l.87,1.76a.56.56,0,0,1,0,.34l0,0-.22.58a.81.81,0,0,0,0,.71,8.81,8.81,0,0,1,.52,1.11l0,0c.18.48.33.94.44,1.32h0v0h0c.1.35.17.64.2.8a.5.5,0,0,0,.49.39h0l1.05-.11a.73.73,0,0,0,.43-.21L19.08,23a.86.86,0,0,0,.24-.58v-.58a.46.46,0,0,1,.25-.42l.65-.38h0l.13-.1,0,0a1.1,1.1,0,0,0,.09-.14.63.63,0,0,0,.05-.3l-.12-2v-.17a.52.52,0,0,1,.16-.41l1.68-1.57a.87.87,0,0,0,.22-.37l.39-1.26A.3.3,0,0,0,22.81,14.47Zm-2.7,3.89.14,2.14a.5.5,0,0,1,0,.16l0,.07,0,0-.07.06-.66.38a.8.8,0,0,0-.4.68v.58a.53.53,0,0,1-.15.37L17.3,24.35a.48.48,0,0,1-.26.12l-1,.12a.21.21,0,0,1-.22-.16c0-.22-.16-.7-.34-1.28h0a.19.19,0,0,1,0-.08h0a.43.43,0,0,0,0-.05c-.09-.26-.19-.54-.3-.83v0a8.34,8.34,0,0,0-.53-1.12.53.53,0,0,1,0-.46l.23-.59,0-.09a.82.82,0,0,0-.06-.53l-.87-1.76a.67.67,0,0,1,0-.42l.11-.46a.65.65,0,0,0-.28-.71l0,0-.06,0-.27-.1a2.27,2.27,0,0,0-.34-.11l-.26-.07H12.6l-.18,0-.17,0-.12,0h-.66a4.74,4.74,0,0,0-.9.12l-.08,0-.1,0h-.23l-.05,0H10l0,0,0,0,0,0a.48.48,0,0,1-.11-.09l-.07-.08-.28-.3-.94-1,0,0V14H8.43a.68.68,0,0,1-.07-.2.34.34,0,0,1,0-.1.41.41,0,0,1,0-.11v0l.17-1,0-.18h0l.1-.55a.87.87,0,0,1,.13-.35.8.8,0,0,1,.15-.17l2.38-2.14H14v.31a.5.5,0,0,0,.3.48l1.41.62a.31.31,0,0,0,.19,0A.27.27,0,0,0,16,10.5l.19-.49a.09.09,0,0,1,.11,0l2,.64a.43.43,0,0,1,.22.18l1.56,2.61.05.08.56.94a.47.47,0,0,0,.15.17.71.71,0,0,0,.52.18l1.23-.1-.38,1.26a.51.51,0,0,1-.15.23l-1.67,1.58A.79.79,0,0,0,20.11,18.36Zm2.46-3.71h0l.15,0Z"/><path d="M10.46,14.06l-.09-.24v0h-.17a.14.14,0,0,1,0,.06.08.08,0,0,1,0,0A.24.24,0,0,1,10,14a0,0,0,0,1,0,0s0,0,0,0a.18.18,0,0,0,.11-.14v0s0-.06,0-.09,0,0,0,0h0l-.18.07s0,0-.05.06,0,.07,0,.1l0,0s0,0,0,0a.29.29,0,0,0,0-.09H9.81a.17.17,0,0,1-.11.11s-.07,0-.1,0v0l-.09.15a.14.14,0,0,0,0,.06.22.22,0,0,0,0,.08.12.12,0,0,1,0,.09l-.1.11,0,0a.06.06,0,0,0,0,.08c0,.09,0,.08.11.12l.06,0a.11.11,0,0,0,.1,0l.08-.05h0a.51.51,0,0,0,.3,0,.27.27,0,0,0,.16-.17.34.34,0,0,0,0-.14s0,0,0,0,0,0,0,0a.07.07,0,0,1,0,.05.39.39,0,0,1-.1.25l-.06,0h0l.1.12h0l.08,0a.16.16,0,0,0,.07-.07l.16-.36s0,0,0,0a.15.15,0,0,0,0-.07A.23.23,0,0,0,10.46,14.06Zm-1.1.49h0s0,0,0,0,0,0,0,0,0,0,0,0h0S9.4,14.53,9.36,14.55Zm.37-.44h0s0,0,0,.05,0,0,0,0,0,0,0,0v0a0,0,0,0,1,0,0s0,0,0,0l0,0a.07.07,0,0,1,0-.06l.09,0s0,0,0,0S9.75,14.1,9.73,14.11Z"/><path d="M9.37,13.78h.18l0,0,0,.08h0a.14.14,0,0,0,.09-.08v0l-.09-.07a.1.1,0,0,0-.09,0l-.21.08Z"/><path d="M9.55,13.89v0a0,0,0,0,0,0,0h0a.32.32,0,0,0-.14,0l-.07,0h.16A.07.07,0,0,1,9.55,13.89Z"/><path class="cls-5" d="M16.63,17a5.87,5.87,0,0,1-.32,1.81c-.08.28-.13.57-.19.86l-.16.88c-.11.58-.22,1.16-.34,1.75-.06.28-.12.57-.19.86h0c0,.09,0,.18-.07.27s0,.11,0,.16a.42.42,0,0,0,0,.1h0v0h0a.19.19,0,0,1,0-.07c0-.08,0-.16,0-.24h0c0-.07,0-.13,0-.2a.5.5,0,0,1,0-.12c0-.25.07-.51.11-.76l.21-1.76.1-.89c0-.29.07-.59.13-.89a6,6,0,0,0,.17-1.7,2.1,2.1,0,0,0-.22-.75,1.85,1.85,0,0,0-.21-.33l-.14-.17-.13-.18a2.48,2.48,0,0,0-.54-.57.7.7,0,0,0-.24-.13h0a1.59,1.59,0,0,0-.39-.07l-.37,0-.19,0-.09,0-.08,0a1.71,1.71,0,0,0-.58.38,3,3,0,0,0-.33.37l-.09.12h0a1,1,0,0,0-.08.11v0h0l-.3,0h-.43l-.38,0a.57.57,0,0,0,.08-.13h0v0l.1-.15.17-.23a4.61,4.61,0,0,1,.68-.72,2.58,2.58,0,0,1,.95-.52l.14,0,.12,0,.25,0a3,3,0,0,1,.52,0,2.08,2.08,0,0,1,.48.11l.05,0a1.55,1.55,0,0,1,.48.28,2.89,2.89,0,0,1,.63.76l.12.19.13.18a2.64,2.64,0,0,1,.23.44A2.77,2.77,0,0,1,16.63,17Z"/><path class="cls-6" d="M12.56,14.93l.15.17.16-.13a1,1,0,0,1,.17-.12l-.12-.19-.19.13Z"/><path class="cls-6" d="M12,15.53l.19.14.26-.33-.17-.16Z"/><path class="cls-6" d="M11.93,15.89h-.16a.25.25,0,0,0,0-.07Z"/><path class="cls-6" d="M14.85,14.51l-.08.17a1.48,1.48,0,0,1,.34.21l.12-.13A1.56,1.56,0,0,0,14.85,14.51Z"/><path class="cls-6" d="M14.05,14.36v.2a1.85,1.85,0,0,1,.41,0l0-.18A2.28,2.28,0,0,0,14.05,14.36Z"/><polygon class="cls-6" points="13.25 14.5 13.33 14.7 13.52 14.64 13.72 14.6 13.69 14.39 13.47 14.43 13.25 14.5"/><path class="cls-6" d="M16.3,16.39l-.13,0a2.71,2.71,0,0,1,.09.41l.14,0A2.23,2.23,0,0,0,16.3,16.39Z"/><path class="cls-6" d="M15.94,15.67l-.13.09a2.74,2.74,0,0,1,.23.36l.13-.06A2.5,2.5,0,0,0,15.94,15.67Z"/><path class="cls-6" d="M15.48,15l-.14.11.27.34.13-.09Z"/><path class="cls-6" d="M16.16,18.75l-.09,0-.09.44.09,0Z"/><path class="cls-6" d="M16.34,18l-.11,0-.09.43.1,0C16.28,18.26,16.31,18.12,16.34,18Z"/><path class="cls-6" d="M16.42,17.18h-.13a3.17,3.17,0,0,1,0,.43h.12A3.4,3.4,0,0,0,16.42,17.18Z"/><polygon class="cls-6" points="15.77 21.08 15.71 21.07 15.65 21.51 15.7 21.52 15.77 21.08"/><polygon class="cls-6" points="15.89 20.3 15.82 20.29 15.76 20.73 15.82 20.74 15.89 20.3"/><polygon class="cls-6" points="16.01 19.52 15.93 19.51 15.87 19.95 15.94 19.96 16.01 19.52"/><path class="cls-6" d="M15.34,23.42l-.06.26v0h0a2.1,2.1,0,0,0,.06-.24Z"/><path class="cls-6" d="M15.5,22.64h0c0,.14-.05.29-.08.43h0C15.45,22.93,15.48,22.79,15.5,22.64Z"/><polygon class="cls-6" points="15.64 21.87 15.6 21.86 15.53 22.3 15.56 22.3 15.64 21.87"/><path class="cls-5" d="M12.11,8.92l0,.15a.83.83,0,0,1,0,.15c-.06.25-.12.5-.19.75s-.18.61-.3.92a4.22,4.22,0,0,1-.18.45,2.29,2.29,0,0,1-.1.23l-.13.23v0a4.21,4.21,0,0,1-1.54,1.31,7.66,7.66,0,0,1-.93.4l-.31.1-.15,0h0l-.13,0a1,1,0,0,1,0-.17l0-.18.05-.26.07-.42.15,0h.09l.07,0a5.62,5.62,0,0,0,.73-.22,3.32,3.32,0,0,0,1.4-.9l0,0,.12-.17a1.57,1.57,0,0,0,.12-.19c.09-.13.16-.26.24-.4s.28-.55.41-.84.19-.43.28-.65l.06-.15L12,8.92Z"/><path class="cls-6" d="M9.37,12.71l.08.18.21-.11.21-.12-.08-.15-.21.1Z"/><path class="cls-6" d="M8.59,13l.06.21A3.43,3.43,0,0,0,9.1,13L9,12.85Z"/><path class="cls-6" d="M8.29,13.31H8.21l-.12,0,.05-.26.1,0v.07h0l0,.06Z"/><path class="cls-6" d="M11.18,11.09l.1.05c.07-.14.13-.29.19-.43l-.09,0C11.32,10.81,11.25,11,11.18,11.09Z"/><path class="cls-6" d="M10.73,11.78l.1.09a2.86,2.86,0,0,0,.28-.4L11,11.41A2,2,0,0,1,10.73,11.78Z"/><path class="cls-6" d="M10.11,12.32l.09.13.19-.14.18-.16-.1-.11a.86.86,0,0,1-.18.14Z"/><polygon class="cls-6" points="11.83 9.54 11.88 9.56 12.01 9.11 11.98 9.1 11.83 9.54"/><path class="cls-6" d="M11.53,10.32l.08,0,.15-.44-.06,0C11.65,10,11.59,10.18,11.53,10.32Z"/><path class="cls-5" d="M20.43,13.43l-.16,0-.16,0a10.58,10.58,0,0,1-2.18-.05c-.94-.09-1.87-.22-2.78-.23h-.53l-.19,0a2.33,2.33,0,0,0-.37,0l-.36.07-.35.1a6,6,0,0,0-1.31.68,8.74,8.74,0,0,0-1.15,1l-.26.27c-.08.1-.17.19-.25.28l-.11.13-.11.13h0l-.09.13h0L10,16l-.05,0-.1,0,0,0a.78.78,0,0,1-.21-.16l-.09-.1-.24-.26.07-.09,0,0,0,0,.09-.09c.06-.07.13-.13.2-.2l.3-.29.06-.05.25-.22.19-.16a9.71,9.71,0,0,1,1.07-.74l.09-.05.51-.27,0,0h0a5.94,5.94,0,0,1,.95-.34l.41-.09.42,0a3,3,0,0,1,.42,0h.4l.33,0c1,.08,1.89.3,2.82.47a11.32,11.32,0,0,0,2.09.22h.34Z"/><path class="cls-6" d="M10.75,14.48l.15.17.35-.3-.13-.16Z"/><path class="cls-6" d="M10.13,15.06l.17.17c.1-.12.22-.22.33-.33l-.16-.17Z"/><path class="cls-6" d="M9.56,15.68l.2.16c.09-.12.19-.23.29-.35l-.18-.16Z"/><path class="cls-6" d="M12.92,13.17l.06.16a3.09,3.09,0,0,1,.43-.14l0-.16A3.36,3.36,0,0,0,12.92,13.17Z"/><path class="cls-6" d="M12.15,13.52l.08.17a4,4,0,0,1,.41-.21l-.07-.17C12.43,13.38,12.28,13.44,12.15,13.52Z"/><path class="cls-6" d="M11.43,14l.11.17c.12-.1.26-.17.38-.26l-.1-.16C11.69,13.79,11.55,13.87,11.43,14Z"/><path class="cls-6" d="M15.43,12.92V13l.46,0,0-.1Z"/><path class="cls-6" d="M14.59,12.89V13h.46V12.9Z"/><path class="cls-6" d="M13.74,13l0,.15.45-.06V12.9Z"/><path class="cls-6" d="M17.93,13.27v.06l.46.06v-.06Z"/><polygon class="cls-6" points="17.1 13.14 17.09 13.22 17.55 13.29 17.56 13.21 17.1 13.14"/><path class="cls-6" d="M16.27,13v.1l.46.06v-.09Z"/><polygon class="cls-6" points="19.6 13.43 19.6 13.46 19.83 13.46 20.07 13.45 20.07 13.43 19.83 13.43 19.6 13.43"/><path class="cls-6" d="M18.77,13.38v0l.47,0v0Z"/><path class="cls-3" d="M8.59,8.76,7.25,7.29l1-.92.23.25-.71.65.31.35.62-.56.22.25-.61.55.56.63Z"/><path class="cls-3" d="M9.76,7.71,8.69,6l.71-.46a1.5,1.5,0,0,1,.42-.2.45.45,0,0,1,.3,0,.56.56,0,0,1,.24.22.53.53,0,0,1,.09.38.66.66,0,0,1-.23.37.78.78,0,0,1,.27,0,2,2,0,0,1,.36.15l.42.19L10.86,7l-.48-.2-.33-.14H9.9a.73.73,0,0,0-.18.09l-.07,0,.45.7ZM9.48,6.53l.25-.16A1.77,1.77,0,0,0,10,6.15.21.21,0,0,0,10.07,6,.23.23,0,0,0,10,5.87a.21.21,0,0,0-.13-.1.25.25,0,0,0-.17,0l-.25.15-.26.17Z"/><path class="cls-3" d="M11.36,6.72,10.6,4.89,12,4.32l.13.31L11.1,5l.17.41.92-.38.13.3-.92.39.2.5,1-.43.13.31Z"/><path class="cls-3" d="M13,6.08l-.45-1.94L14,3.81l.07.33-1,.24.1.43,1-.22.07.32-1,.23.12.52,1.08-.25.08.33Z"/><path class="cls-3" d="M15.8,5.65l0-1.65h-.59V3.66l1.58,0V4h-.58l0,1.65Z"/><path class="cls-3" d="M16.94,5.67l.33-2,.83.14a1.66,1.66,0,0,1,.45.13.56.56,0,0,1,.2.23.58.58,0,0,1,0,.32.6.6,0,0,1-.19.35.67.67,0,0,1-.42.11.67.67,0,0,1,.18.2,1.53,1.53,0,0,1,.17.36L18.7,6l-.47-.08L18,5.41a2.22,2.22,0,0,0-.16-.32.24.24,0,0,0-.1-.1l-.2-.06h-.08l-.14.82Zm.59-1.06.29,0a1.41,1.41,0,0,0,.36,0,.17.17,0,0,0,.12-.06.23.23,0,0,0,.07-.14.24.24,0,0,0,0-.17.22.22,0,0,0-.13-.1l-.29-.06-.31,0Z"/><path class="cls-3" d="M20.47,6.63l-.41-.15V6l-.74-.28L19,6.09l-.4-.15L20,4.34l.4.15Zm-.42-1V4.85l-.5.6Z"/><path class="cls-3" d="M21.55,5l.63.38a1.58,1.58,0,0,1,.31.22.66.66,0,0,1,.16.31.81.81,0,0,1,0,.38,1.65,1.65,0,0,1-.18.43A1.68,1.68,0,0,1,22.2,7a.9.9,0,0,1-.36.19.75.75,0,0,1-.33,0,1.35,1.35,0,0,1-.32-.14l-.65-.39Zm.18.5L21.05,6.6l.26.15.22.11a.37.37,0,0,0,.18,0,.42.42,0,0,0,.19-.11,1.27,1.27,0,0,0,.22-.29,1.14,1.14,0,0,0,.15-.33.81.81,0,0,0,0-.22.41.41,0,0,0-.12-.18,1.49,1.49,0,0,0-.27-.18Z"/><path class="cls-3" d="M22.14,7.67l1.29-1.51,1.12,1-.22.26-.81-.7L23.23,7l.76.65-.22.26L23,7.27l-.35.41.84.72-.21.25Z"/><path class="cls-5" d="M21.17,23.34a.46.46,0,0,1-.4-.22,1.17,1.17,0,0,1,0-1,3,3,0,0,0,.13-.78,2,2,0,0,1,0-.29.31.31,0,0,1,.25-.27h0a1.28,1.28,0,0,0,.75-.65.23.23,0,0,1,.21-.11.25.25,0,0,1,.21.13,2.14,2.14,0,0,1,0,1.16,2.25,2.25,0,0,1-.2.57l-.11.2C21.58,23,21.37,23.34,21.17,23.34ZM21.24,21h0a.06.06,0,0,0-.06.06c0,.07,0,.17,0,.27a3.15,3.15,0,0,1-.16.87A.93.93,0,0,0,21,23a.22.22,0,0,0,.17.11A3.51,3.51,0,0,0,21.79,22l.11-.21a2,2,0,0,0,.18-.5,2.19,2.19,0,0,0,.05-1A1.55,1.55,0,0,1,21.24,21Z"/><path class="cls-5" d="M9.54,13.27s0,0,0,0a1.1,1.1,0,0,1,.32-.11.75.75,0,0,1,.15,0,.29.29,0,0,1,.14.08.44.44,0,0,1,.12.15h0a.6.6,0,0,0-.35,0,.65.65,0,0,1,.48.15.47.47,0,0,1,0-.2.48.48,0,0,1,.07-.2.25.25,0,0,0-.07.12.5.5,0,0,0,0,.13v0a.46.46,0,0,1-.07-.16.21.21,0,0,1,0-.15.7.7,0,0,1,.16-.19l0,0h0s0,0,0,0a.4.4,0,0,0,0,.15l0,.08a.22.22,0,0,1,0,.21.49.49,0,0,1-.13.12v0a.2.2,0,0,0,0,.11c0,.05,0,.09,0,.13s0,0,0,0h0a.44.44,0,0,0-.15-.12l-.06,0h0a.76.76,0,0,1-.16.06.37.37,0,0,1-.18,0,.29.29,0,0,1-.14-.08l-.07-.09a.7.7,0,0,0-.16-.13h0Z"/><rect x="10.15" y="13.33" width="1.26" height="0.58" transform="translate(-5.79 8.39) rotate(-34.11)"/><path d="M12.26,13.21l0-.06L12.13,13a.1.1,0,0,0-.05,0l-.33-.16a.17.17,0,0,0-.14,0l-.31.22s0,0,0,.07l.26.38.09.12s0,0,.07,0l.09-.06a.22.22,0,0,1,.09-.21.18.18,0,0,1,.22,0l.15-.1A0,0,0,0,0,12.26,13.21Zm-.76.07-.11-.17a0,0,0,0,1,0-.06l.21-.14a.08.08,0,0,1,.09,0l.22.1s0,0,0,.05l-.36.25A.07.07,0,0,1,11.5,13.28Zm.71,0s0,0,0,0l0,0h0a0,0,0,0,1,0,0h0l0,0A0,0,0,0,1,12.21,13.24Z"/><path d="M12.15,13.52a.13.13,0,0,0,0-.08.22.22,0,0,0-.07-.06.16.16,0,0,0-.16,0,.17.17,0,0,0-.08.14.12.12,0,0,0,0,.09.18.18,0,0,0,.24,0,.16.16,0,0,0,.07-.14h0Zm-.1.11a.11.11,0,0,1-.16,0,.14.14,0,0,1,0-.06.11.11,0,0,1,.05-.1.14.14,0,0,1,.11,0l.05,0A.12.12,0,0,1,12.05,13.63Z"/><path d="M11.07,14.23h0a.14.14,0,0,0,0-.06l-.05,0a.17.17,0,0,0-.19,0,.15.15,0,0,0-.07.17.14.14,0,0,0,0,.06.13.13,0,0,0,.07.06.17.17,0,0,0,.17,0A.16.16,0,0,0,11.07,14.23Zm-.05,0a.11.11,0,0,1,0,.09.15.15,0,0,1-.09,0h0a.12.12,0,0,1-.07-.05s0,0,0,0a.12.12,0,0,1,.05-.12.15.15,0,0,1,.13,0l0,0a.19.19,0,0,1,0,.07Z"/><path d="M11.49,13.56l.12.17-.57.38a.23.23,0,0,0-.25,0,.22.22,0,0,0-.08.24h-.07s-.05,0-.06,0a.09.09,0,0,1,0-.13Z"/><image width="512" height="512" transform="translate(14.54 25.96) scale(0.01)" xlink:href="C:%5CUsers%5Cuser%5CDownloads%5Ccropped-logo.png"/></svg>